<svg xmlns="http://www.w3.org/2000/svg" version="1.1" xmlns:xlink="http://www.w3.org/1999/xlink" xmlns:svgjs="http://svgjs.dev/svgjs" viewBox="0 0 800 800"><defs><linearGradient gradientTransform="rotate(270)" x1="50%" y1="0%" x2="50%" y2="100%" id="sssquiggly-grad"><stop stop-color="#E94057" stop-opacity="1" offset="0%"></stop><stop stop-color="#F27121" stop-opacity="1" offset="100%"></stop></linearGradient></defs><g stroke-width="2" stroke="url(#sssquiggly-grad)" fill="none" stroke-linecap="round" transform="matrix(1,0,0,1,0,6.275413513183594)"><path d="M10,10C21.805555555555557,12.291666666666666,40.97222222222223,27.458333333333336,66.66666666666667,21C92.36111111111111,14.541666666666666,105.55555555555557,-21.208333333333332,133.33333333333334,-21C161.11111111111111,-20.791666666666668,172.22222222222223,18.458333333333332,200,22C227.77777777777777,25.541666666666668,238.8888888888889,-5.041666666666667,266.6666666666667,-4C294.44444444444446,-2.958333333333333,305.5555555555556,25.75,333.33333333333337,27C361.11111111111114,28.25,372.22222222222223,2.2083333333333335,400,2C427.77777777777777,1.7916666666666667,438.8888888888889,28.291666666666668,466.6666666666667,26C494.44444444444446,23.708333333333332,505.5555555555556,-9.833333333333334,533.3333333333334,-9C561.1111111111111,-8.166666666666666,572.2222222222222,30.833333333333332,600,30C627.7777777777778,29.166666666666668,638.8888888888889,-16.75,666.6666666666667,-13C694.4444444444446,-9.25,707.6388888888889,43.208333333333336,733.3333333333334,48C759.0277777777778,52.791666666666664,778.1944444444445,17.916666666666664,790,10"></path><path d="M10,10C21.805555555555557,12.291666666666666,40.97222222222223,27.458333333333336,66.66666666666667,21C92.36111111111111,14.541666666666666,105.55555555555557,-21.208333333333332,133.33333333333334,-21C161.11111111111111,-20.791666666666668,172.22222222222223,18.458333333333332,200,22C227.77777777777777,25.541666666666668,238.8888888888889,-5.041666666666667,266.6666666666667,-4C294.44444444444446,-2.958333333333333,305.5555555555556,25.75,333.33333333333337,27C361.11111111111114,28.25,372.22222222222223,2.2083333333333335,400,2C427.77777777777777,1.7916666666666667,438.8888888888889,28.291666666666668,466.6666666666667,26C494.44444444444446,23.708333333333332,505.5555555555556,-9.833333333333334,533.3333333333334,-9C561.1111111111111,-8.166666666666666,572.2222222222222,30.833333333333332,600,30C627.7777777777778,29.166666666666668,638.8888888888889,-16.75,666.6666666666667,-13C694.4444444444446,-9.25,707.6388888888889,43.208333333333336,733.3333333333334,48C759.0277777777778,52.791666666666664,778.1944444444445,17.916666666666664,790,10" transform="matrix(1,0,0,1,0,760)"></path><path d="M10,10C21.805555555555557,12.291666666666666,40.97222222222223,27.458333333333336,66.66666666666667,21C92.36111111111111,14.541666666666666,105.55555555555557,-21.208333333333332,133.33333333333334,-21C161.11111111111111,-20.791666666666668,172.22222222222223,18.458333333333332,200,22C227.77777777777777,25.541666666666668,238.8888888888889,-5.041666666666667,266.6666666666667,-4C294.44444444444446,-2.958333333333333,305.5555555555556,25.75,333.33333333333337,27C361.11111111111114,28.25,372.22222222222223,2.2083333333333335,400,2C427.77777777777777,1.7916666666666667,438.8888888888889,28.291666666666668,466.6666666666667,26C494.44444444444446,23.708333333333332,505.5555555555556,-9.833333333333334,533.3333333333334,-9C561.1111111111111,-8.166666666666666,572.2222222222222,30.833333333333332,600,30C627.7777777777778,29.166666666666668,638.8888888888889,-16.75,666.6666666666667,-13C694.4444444444446,-9.25,707.6388888888889,43.208333333333336,733.3333333333334,48C759.0277777777778,52.791666666666664,778.1944444444445,17.916666666666664,790,10" transform="matrix(1,0,0,1,0,720)"></path><path d="M10,10C21.805555555555557,12.291666666666666,40.97222222222223,27.458333333333336,66.66666666666667,21C92.36111111111111,14.541666666666666,105.55555555555557,-21.208333333333332,133.33333333333334,-21C161.11111111111111,-20.791666666666668,172.22222222222223,18.458333333333332,200,22C227.77777777777777,25.541666666666668,238.8888888888889,-5.041666666666667,266.6666666666667,-4C294.44444444444446,-2.958333333333333,305.5555555555556,25.75,333.33333333333337,27C361.11111111111114,28.25,372.22222222222223,2.2083333333333335,400,2C427.77777777777777,1.7916666666666667,438.8888888888889,28.291666666666668,466.6666666666667,26C494.44444444444446,23.708333333333332,505.5555555555556,-9.833333333333334,533.3333333333334,-9C561.1111111111111,-8.166666666666666,572.2222222222222,30.833333333333332,600,30C627.7777777777778,29.166666666666668,638.8888888888889,-16.75,666.6666666666667,-13C694.4444444444446,-9.25,707.6388888888889,43.208333333333336,733.3333333333334,48C759.0277777777778,52.791666666666664,778.1944444444445,17.916666666666664,790,10" transform="matrix(1,0,0,1,0,680)"></path><path d="M10,10C21.805555555555557,12.291666666666666,40.97222222222223,27.458333333333336,66.66666666666667,21C92.36111111111111,14.541666666666666,105.55555555555557,-21.208333333333332,133.33333333333334,-21C161.11111111111111,-20.791666666666668,172.22222222222223,18.458333333333332,200,22C227.77777777777777,25.541666666666668,238.8888888888889,-5.041666666666667,266.6666666666667,-4C294.44444444444446,-2.958333333333333,305.5555555555556,25.75,333.33333333333337,27C361.11111111111114,28.25,372.22222222222223,2.2083333333333335,400,2C427.77777777777777,1.7916666666666667,438.8888888888889,28.291666666666668,466.6666666666667,26C494.44444444444446,23.708333333333332,505.5555555555556,-9.833333333333334,533.3333333333334,-9C561.1111111111111,-8.166666666666666,572.2222222222222,30.833333333333332,600,30C627.7777777777778,29.166666666666668,638.8888888888889,-16.75,666.6666666666667,-13C694.4444444444446,-9.25,707.6388888888889,43.208333333333336,733.3333333333334,48C759.0277777777778,52.791666666666664,778.1944444444445,17.916666666666664,790,10" transform="matrix(1,0,0,1,0,640)"></path><path d="M10,10C21.805555555555557,12.291666666666666,40.97222222222223,27.458333333333336,66.66666666666667,21C92.36111111111111,14.541666666666666,105.55555555555557,-21.208333333333332,133.33333333333334,-21C161.11111111111111,-20.791666666666668,172.22222222222223,18.458333333333332,200,22C227.77777777777777,25.541666666666668,238.8888888888889,-5.041666666666667,266.6666666666667,-4C294.44444444444446,-2.958333333333333,305.5555555555556,25.75,333.33333333333337,27C361.11111111111114,28.25,372.22222222222223,2.2083333333333335,400,2C427.77777777777777,1.7916666666666667,438.8888888888889,28.291666666666668,466.6666666666667,26C494.44444444444446,23.708333333333332,505.5555555555556,-9.833333333333334,533.3333333333334,-9C561.1111111111111,-8.166666666666666,572.2222222222222,30.833333333333332,600,30C627.7777777777778,29.166666666666668,638.8888888888889,-16.75,666.6666666666667,-13C694.4444444444446,-9.25,707.6388888888889,43.208333333333336,733.3333333333334,48C759.0277777777778,52.791666666666664,778.1944444444445,17.916666666666664,790,10" transform="matrix(1,0,0,1,0,600)"></path><path d="M10,10C21.805555555555557,12.291666666666666,40.97222222222223,27.458333333333336,66.66666666666667,21C92.36111111111111,14.541666666666666,105.55555555555557,-21.208333333333332,133.33333333333334,-21C161.11111111111111,-20.791666666666668,172.22222222222223,18.458333333333332,200,22C227.77777777777777,25.541666666666668,238.8888888888889,-5.041666666666667,266.6666666666667,-4C294.44444444444446,-2.958333333333333,305.5555555555556,25.75,333.33333333333337,27C361.11111111111114,28.25,372.22222222222223,2.2083333333333335,400,2C427.77777777777777,1.7916666666666667,438.8888888888889,28.291666666666668,466.6666666666667,26C494.44444444444446,23.708333333333332,505.5555555555556,-9.833333333333334,533.3333333333334,-9C561.1111111111111,-8.166666666666666,572.2222222222222,30.833333333333332,600,30C627.7777777777778,29.166666666666668,638.8888888888889,-16.75,666.6666666666667,-13C694.4444444444446,-9.25,707.6388888888889,43.208333333333336,733.3333333333334,48C759.0277777777778,52.791666666666664,778.1944444444445,17.916666666666664,790,10" transform="matrix(1,0,0,1,0,560)"></path><path d="M10,10C21.805555555555557,12.291666666666666,40.97222222222223,27.458333333333336,66.66666666666667,21C92.36111111111111,14.541666666666666,105.55555555555557,-21.208333333333332,133.33333333333334,-21C161.11111111111111,-20.791666666666668,172.22222222222223,18.458333333333332,200,22C227.77777777777777,25.541666666666668,238.8888888888889,-5.041666666666667,266.6666666666667,-4C294.44444444444446,-2.958333333333333,305.5555555555556,25.75,333.33333333333337,27C361.11111111111114,28.25,372.22222222222223,2.2083333333333335,400,2C427.77777777777777,1.7916666666666667,438.8888888888889,28.291666666666668,466.6666666666667,26C494.44444444444446,23.708333333333332,505.5555555555556,-9.833333333333334,533.3333333333334,-9C561.1111111111111,-8.166666666666666,572.2222222222222,30.833333333333332,600,30C627.7777777777778,29.166666666666668,638.8888888888889,-16.75,666.6666666666667,-13C694.4444444444446,-9.25,707.6388888888889,43.208333333333336,733.3333333333334,48C759.0277777777778,52.791666666666664,778.1944444444445,17.916666666666664,790,10" transform="matrix(1,0,0,1,0,520)"></path><path d="M10,10C21.805555555555557,12.291666666666666,40.97222222222223,27.458333333333336,66.66666666666667,21C92.36111111111111,14.541666666666666,105.55555555555557,-21.208333333333332,133.33333333333334,-21C161.11111111111111,-20.791666666666668,172.22222222222223,18.458333333333332,200,22C227.77777777777777,25.541666666666668,238.8888888888889,-5.041666666666667,266.6666666666667,-4C294.44444444444446,-2.958333333333333,305.5555555555556,25.75,333.33333333333337,27C361.11111111111114,28.25,372.22222222222223,2.2083333333333335,400,2C427.77777777777777,1.7916666666666667,438.8888888888889,28.291666666666668,466.6666666666667,26C494.44444444444446,23.708333333333332,505.5555555555556,-9.833333333333334,533.3333333333334,-9C561.1111111111111,-8.166666666666666,572.2222222222222,30.833333333333332,600,30C627.7777777777778,29.166666666666668,638.8888888888889,-16.75,666.6666666666667,-13C694.4444444444446,-9.25,707.6388888888889,43.208333333333336,733.3333333333334,48C759.0277777777778,52.791666666666664,778.1944444444445,17.916666666666664,790,10" transform="matrix(1,0,0,1,0,480)"></path><path d="M10,10C21.805555555555557,12.291666666666666,40.97222222222223,27.458333333333336,66.66666666666667,21C92.36111111111111,14.541666666666666,105.55555555555557,-21.208333333333332,133.33333333333334,-21C161.11111111111111,-20.791666666666668,172.22222222222223,18.458333333333332,200,22C227.77777777777777,25.541666666666668,238.8888888888889,-5.041666666666667,266.6666666666667,-4C294.44444444444446,-2.958333333333333,305.5555555555556,25.75,333.33333333333337,27C361.11111111111114,28.25,372.22222222222223,2.2083333333333335,400,2C427.77777777777777,1.7916666666666667,438.8888888888889,28.291666666666668,466.6666666666667,26C494.44444444444446,23.708333333333332,505.5555555555556,-9.833333333333334,533.3333333333334,-9C561.1111111111111,-8.166666666666666,572.2222222222222,30.833333333333332,600,30C627.7777777777778,29.166666666666668,638.8888888888889,-16.75,666.6666666666667,-13C694.4444444444446,-9.25,707.6388888888889,43.208333333333336,733.3333333333334,48C759.0277777777778,52.791666666666664,778.1944444444445,17.916666666666664,790,10" transform="matrix(1,0,0,1,0,440)"></path><path d="M10,10C21.805555555555557,12.291666666666666,40.97222222222223,27.458333333333336,66.66666666666667,21C92.36111111111111,14.541666666666666,105.55555555555557,-21.208333333333332,133.33333333333334,-21C161.11111111111111,-20.791666666666668,172.22222222222223,18.458333333333332,200,22C227.77777777777777,25.541666666666668,238.8888888888889,-5.041666666666667,266.6666666666667,-4C294.44444444444446,-2.958333333333333,305.5555555555556,25.75,333.33333333333337,27C361.11111111111114,28.25,372.22222222222223,2.2083333333333335,400,2C427.77777777777777,1.7916666666666667,438.8888888888889,28.291666666666668,466.6666666666667,26C494.44444444444446,23.708333333333332,505.5555555555556,-9.833333333333334,533.3333333333334,-9C561.1111111111111,-8.166666666666666,572.2222222222222,30.833333333333332,600,30C627.7777777777778,29.166666666666668,638.8888888888889,-16.75,666.6666666666667,-13C694.4444444444446,-9.25,707.6388888888889,43.208333333333336,733.3333333333334,48C759.0277777777778,52.791666666666664,778.1944444444445,17.916666666666664,790,10" transform="matrix(1,0,0,1,0,400)"></path><path d="M10,10C21.805555555555557,12.291666666666666,40.97222222222223,27.458333333333336,66.66666666666667,21C92.36111111111111,14.541666666666666,105.55555555555557,-21.208333333333332,133.33333333333334,-21C161.11111111111111,-20.791666666666668,172.22222222222223,18.458333333333332,200,22C227.77777777777777,25.541666666666668,238.8888888888889,-5.041666666666667,266.6666666666667,-4C294.44444444444446,-2.958333333333333,305.5555555555556,25.75,333.33333333333337,27C361.11111111111114,28.25,372.22222222222223,2.2083333333333335,400,2C427.77777777777777,1.7916666666666667,438.8888888888889,28.291666666666668,466.6666666666667,26C494.44444444444446,23.708333333333332,505.5555555555556,-9.833333333333334,533.3333333333334,-9C561.1111111111111,-8.166666666666666,572.2222222222222,30.833333333333332,600,30C627.7777777777778,29.166666666666668,638.8888888888889,-16.75,666.6666666666667,-13C694.4444444444446,-9.25,707.6388888888889,43.208333333333336,733.3333333333334,48C759.0277777777778,52.791666666666664,778.1944444444445,17.916666666666664,790,10" transform="matrix(1,0,0,1,0,360)"></path><path d="M10,10C21.805555555555557,12.291666666666666,40.97222222222223,27.458333333333336,66.66666666666667,21C92.36111111111111,14.541666666666666,105.55555555555557,-21.208333333333332,133.33333333333334,-21C161.11111111111111,-20.791666666666668,172.22222222222223,18.458333333333332,200,22C227.77777777777777,25.541666666666668,238.8888888888889,-5.041666666666667,266.6666666666667,-4C294.44444444444446,-2.958333333333333,305.5555555555556,25.75,333.33333333333337,27C361.11111111111114,28.25,372.22222222222223,2.2083333333333335,400,2C427.77777777777777,1.7916666666666667,438.8888888888889,28.291666666666668,466.6666666666667,26C494.44444444444446,23.708333333333332,505.5555555555556,-9.833333333333334,533.3333333333334,-9C561.1111111111111,-8.166666666666666,572.2222222222222,30.833333333333332,600,30C627.7777777777778,29.166666666666668,638.8888888888889,-16.75,666.6666666666667,-13C694.4444444444446,-9.25,707.6388888888889,43.208333333333336,733.3333333333334,48C759.0277777777778,52.791666666666664,778.1944444444445,17.916666666666664,790,10" transform="matrix(1,0,0,1,0,320)"></path><path d="M10,10C21.805555555555557,12.291666666666666,40.97222222222223,27.458333333333336,66.66666666666667,21C92.36111111111111,14.541666666666666,105.55555555555557,-21.208333333333332,133.33333333333334,-21C161.11111111111111,-20.791666666666668,172.22222222222223,18.458333333333332,200,22C227.77777777777777,25.541666666666668,238.8888888888889,-5.041666666666667,266.6666666666667,-4C294.44444444444446,-2.958333333333333,305.5555555555556,25.75,333.33333333333337,27C361.11111111111114,28.25,372.22222222222223,2.2083333333333335,400,2C427.77777777777777,1.7916666666666667,438.8888888888889,28.291666666666668,466.6666666666667,26C494.44444444444446,23.708333333333332,505.5555555555556,-9.833333333333334,533.3333333333334,-9C561.1111111111111,-8.166666666666666,572.2222222222222,30.833333333333332,600,30C627.7777777777778,29.166666666666668,638.8888888888889,-16.75,666.6666666666667,-13C694.4444444444446,-9.25,707.6388888888889,43.208333333333336,733.3333333333334,48C759.0277777777778,52.791666666666664,778.1944444444445,17.916666666666664,790,10" transform="matrix(1,0,0,1,0,280)"></path><path d="M10,10C21.805555555555557,12.291666666666666,40.97222222222223,27.458333333333336,66.66666666666667,21C92.36111111111111,14.541666666666666,105.55555555555557,-21.208333333333332,133.33333333333334,-21C161.11111111111111,-20.791666666666668,172.22222222222223,18.458333333333332,200,22C227.77777777777777,25.541666666666668,238.8888888888889,-5.041666666666667,266.6666666666667,-4C294.44444444444446,-2.958333333333333,305.5555555555556,25.75,333.33333333333337,27C361.11111111111114,28.25,372.22222222222223,2.2083333333333335,400,2C427.77777777777777,1.7916666666666667,438.8888888888889,28.291666666666668,466.6666666666667,26C494.44444444444446,23.708333333333332,505.5555555555556,-9.833333333333334,533.3333333333334,-9C561.1111111111111,-8.166666666666666,572.2222222222222,30.833333333333332,600,30C627.7777777777778,29.166666666666668,638.8888888888889,-16.75,666.6666666666667,-13C694.4444444444446,-9.25,707.6388888888889,43.208333333333336,733.3333333333334,48C759.0277777777778,52.791666666666664,778.1944444444445,17.916666666666664,790,10" transform="matrix(1,0,0,1,0,240)"></path><path d="M10,10C21.805555555555557,12.291666666666666,40.97222222222223,27.458333333333336,66.66666666666667,21C92.36111111111111,14.541666666666666,105.55555555555557,-21.208333333333332,133.33333333333334,-21C161.11111111111111,-20.791666666666668,172.22222222222223,18.458333333333332,200,22C227.77777777777777,25.541666666666668,238.8888888888889,-5.041666666666667,266.6666666666667,-4C294.44444444444446,-2.958333333333333,305.5555555555556,25.75,333.33333333333337,27C361.11111111111114,28.25,372.22222222222223,2.2083333333333335,400,2C427.77777777777777,1.7916666666666667,438.8888888888889,28.291666666666668,466.6666666666667,26C494.44444444444446,23.708333333333332,505.5555555555556,-9.833333333333334,533.3333333333334,-9C561.1111111111111,-8.166666666666666,572.2222222222222,30.833333333333332,600,30C627.7777777777778,29.166666666666668,638.8888888888889,-16.75,666.6666666666667,-13C694.4444444444446,-9.25,707.6388888888889,43.208333333333336,733.3333333333334,48C759.0277777777778,52.791666666666664,778.1944444444445,17.916666666666664,790,10" transform="matrix(1,0,0,1,0,200)"></path><path d="M10,10C21.805555555555557,12.291666666666666,40.97222222222223,27.458333333333336,66.66666666666667,21C92.36111111111111,14.541666666666666,105.55555555555557,-21.208333333333332,133.33333333333334,-21C161.11111111111111,-20.791666666666668,172.22222222222223,18.458333333333332,200,22C227.77777777777777,25.541666666666668,238.8888888888889,-5.041666666666667,266.6666666666667,-4C294.44444444444446,-2.958333333333333,305.5555555555556,25.75,333.33333333333337,27C361.11111111111114,28.25,372.22222222222223,2.2083333333333335,400,2C427.77777777777777,1.7916666666666667,438.8888888888889,28.291666666666668,466.6666666666667,26C494.44444444444446,23.708333333333332,505.5555555555556,-9.833333333333334,533.3333333333334,-9C561.1111111111111,-8.166666666666666,572.2222222222222,30.833333333333332,600,30C627.7777777777778,29.166666666666668,638.8888888888889,-16.75,666.6666666666667,-13C694.4444444444446,-9.25,707.6388888888889,43.208333333333336,733.3333333333334,48C759.0277777777778,52.791666666666664,778.1944444444445,17.916666666666664,790,10" transform="matrix(1,0,0,1,0,160)"></path><path d="M10,10C21.805555555555557,12.291666666666666,40.97222222222223,27.458333333333336,66.66666666666667,21C92.36111111111111,14.541666666666666,105.55555555555557,-21.208333333333332,133.33333333333334,-21C161.11111111111111,-20.791666666666668,172.22222222222223,18.458333333333332,200,22C227.77777777777777,25.541666666666668,238.8888888888889,-5.041666666666667,266.6666666666667,-4C294.44444444444446,-2.958333333333333,305.5555555555556,25.75,333.33333333333337,27C361.11111111111114,28.25,372.22222222222223,2.2083333333333335,400,2C427.77777777777777,1.7916666666666667,438.8888888888889,28.291666666666668,466.6666666666667,26C494.44444444444446,23.708333333333332,505.5555555555556,-9.833333333333334,533.3333333333334,-9C561.1111111111111,-8.166666666666666,572.2222222222222,30.833333333333332,600,30C627.7777777777778,29.166666666666668,638.8888888888889,-16.75,666.6666666666667,-13C694.4444444444446,-9.25,707.6388888888889,43.208333333333336,733.3333333333334,48C759.0277777777778,52.791666666666664,778.1944444444445,17.916666666666664,790,10" transform="matrix(1,0,0,1,0,120)"></path><path d="M10,10C21.805555555555557,12.291666666666666,40.97222222222223,27.458333333333336,66.66666666666667,21C92.36111111111111,14.541666666666666,105.55555555555557,-21.208333333333332,133.33333333333334,-21C161.11111111111111,-20.791666666666668,172.22222222222223,18.458333333333332,200,22C227.77777777777777,25.541666666666668,238.8888888888889,-5.041666666666667,266.6666666666667,-4C294.44444444444446,-2.958333333333333,305.5555555555556,25.75,333.33333333333337,27C361.11111111111114,28.25,372.22222222222223,2.2083333333333335,400,2C427.77777777777777,1.7916666666666667,438.8888888888889,28.291666666666668,466.6666666666667,26C494.44444444444446,23.708333333333332,505.5555555555556,-9.833333333333334,533.3333333333334,-9C561.1111111111111,-8.166666666666666,572.2222222222222,30.833333333333332,600,30C627.7777777777778,29.166666666666668,638.8888888888889,-16.75,666.6666666666667,-13C694.4444444444446,-9.25,707.6388888888889,43.208333333333336,733.3333333333334,48C759.0277777777778,52.791666666666664,778.1944444444445,17.916666666666664,790,10" transform="matrix(1,0,0,1,0,80)"></path><path d="M10,10C21.805555555555557,12.291666666666666,40.97222222222223,27.458333333333336,66.66666666666667,21C92.36111111111111,14.541666666666666,105.55555555555557,-21.208333333333332,133.33333333333334,-21C161.11111111111111,-20.791666666666668,172.22222222222223,18.458333333333332,200,22C227.77777777777777,25.541666666666668,238.8888888888889,-5.041666666666667,266.6666666666667,-4C294.44444444444446,-2.958333333333333,305.5555555555556,25.75,333.33333333333337,27C361.11111111111114,28.25,372.22222222222223,2.2083333333333335,400,2C427.77777777777777,1.7916666666666667,438.8888888888889,28.291666666666668,466.6666666666667,26C494.44444444444446,23.708333333333332,505.5555555555556,-9.833333333333334,533.3333333333334,-9C561.1111111111111,-8.166666666666666,572.2222222222222,30.833333333333332,600,30C627.7777777777778,29.166666666666668,638.8888888888889,-16.75,666.6666666666667,-13C694.4444444444446,-9.25,707.6388888888889,43.208333333333336,733.3333333333334,48C759.0277777777778,52.791666666666664,778.1944444444445,17.916666666666664,790,10" transform="matrix(1,0,0,1,0,40)"></path></g></svg>