<svg width="30" height="30" viewBox="0 0 30 30" fill="none" xmlns="http://www.w3.org/2000/svg">
<path d="M21.875 11.875C23.6281 11.8747 25.3499 12.3392 26.865 13.2212C26.952 13.2721 27.0582 13.2777 27.15 13.2362C27.2421 13.194 27.3085 13.1105 27.3288 13.0113C27.442 12.431 27.4993 11.8412 27.5 11.25C27.5 5.0475 21.3312 0 13.75 0C6.16875 0 0 5.0475 0 11.25C0.0468653 14.0437 1.24933 16.693 3.32125 18.5675L1.2875 24.1613C1.20311 24.3942 1.26432 24.6551 1.44356 24.8262C1.62279 24.9973 1.88618 25.0464 2.115 24.9513L9.405 21.915C10.1012 22.1029 10.809 22.2449 11.5238 22.34C11.6146 22.352 11.7062 22.3232 11.7737 22.2612C11.8439 22.1977 11.8816 22.1058 11.8763 22.0112C11.8763 21.965 11.8763 21.9175 11.8763 21.87C11.8852 16.3522 16.3572 11.8819 21.875 11.875Z" fill="#8A2387"/>
<path d="M21.875 13.75C17.3877 13.75 13.75 17.3877 13.75 21.875C13.75 26.3623 17.3877 30 21.875 30C26.3623 30 30 26.3623 30 21.875C29.9945 17.39 26.36 13.7555 21.875 13.75Z" fill="#E8D3E7"/>
</svg>
