<svg width="30" height="29" viewBox="0 0 30 29" fill="none" xmlns="http://www.w3.org/2000/svg">
<path d="M28.75 0H13.1253C12.435 0 11.8754 0.559633 11.8754 1.24998V10.6248C11.8754 10.97 12.1552 11.2498 12.5004 11.2498H21.0377C23.0864 11.2049 24.819 12.7561 25.0001 14.7972C25.0558 15.8264 24.6854 16.833 23.976 17.5807C23.2667 18.3284 22.2808 18.7511 21.2502 18.7496H12.5004C12.1552 18.7496 11.8754 19.0294 11.8754 19.3746V27.4995C11.8754 28.1898 12.435 28.7494 13.1253 28.7494H28.75C29.4404 28.7494 30 28.1898 30 27.4995V1.24998C30 0.559633 29.4404 0 28.75 0Z" fill="#F27121"/>
<path d="M21.2502 16.8747C22.2857 16.8747 23.1251 16.0353 23.1251 14.9997C23.1251 13.9642 22.2857 13.1248 21.2502 13.1248H8.75042V9.99985C8.7506 9.51918 8.47514 9.08098 8.04191 8.87277C7.60868 8.66455 7.09443 8.7232 6.71921 9.02362L0.469327 14.0235C0.172692 14.2607 0 14.6199 0 14.9997C0 15.3796 0.172692 15.7388 0.469327 15.976L6.71921 20.9759C7.1008 21.2617 7.60705 21.3191 8.04293 21.1259C8.47548 20.9175 8.75046 20.4798 8.75042 19.9997V16.8747H21.2502Z" fill="#FCE3D3"/>
</svg>
