<svg width="30" height="30" viewBox="0 0 30 30" fill="none" xmlns="http://www.w3.org/2000/svg">
<path d="M11.875 26.875H8.125C7.77982 26.875 7.5 27.1548 7.5 27.5C7.5 28.8807 8.61929 30 10 30C11.3807 30 12.5 28.8807 12.5 27.5C12.5 27.1548 12.2202 26.875 11.875 26.875Z" fill="#FDFDFD" fill-opacity="0.35"/>
<path d="M14.5237 8.48625C13.7359 7.87635 12.8359 7.42703 11.875 7.16375V5.625C11.875 4.58947 11.0355 3.75 9.99998 3.75C8.96445 3.75 8.12498 4.58947 8.12498 5.625V7.1625C4.47373 8.15125 1.87498 11.8837 1.87498 16.25V17.0575C1.8721 19.7171 1.253 22.3399 0.0662297 24.72C-0.0308542 24.9137 -0.0206505 25.1439 0.0931939 25.3283C0.207038 25.5127 0.408275 25.625 0.62498 25.625H19.375C19.5917 25.625 19.7929 25.5127 19.9068 25.3283C20.0206 25.1439 20.0308 24.9137 19.9337 24.72C18.7476 22.3396 18.1285 19.717 18.125 17.0575V16.25C18.126 15.4445 18.0358 14.6415 17.8562 13.8562C16.116 12.5432 14.9278 10.6285 14.5237 8.48625Z" fill="#E94057"/>
<path d="M23.125 0C19.328 0 16.25 3.07804 16.25 6.875C16.25 10.672 19.328 13.75 23.125 13.75C26.922 13.75 30 10.672 30 6.875C30 3.07804 26.922 0 23.125 0Z" fill="#FBD9DD"/>
</svg>
